<svg class="main-svg" xmlns="http://www.w3.org/2000/svg" xmlns:xlink="http://www.w3.org/1999/xlink" width="700" height="500" style="" viewBox="0 0 700 500"><rect x="0" y="0" width="700" height="500" style="fill: rgb(255, 255, 255); fill-opacity: 1;"/><defs id="defs-3980bf"><g class="clips"/><g class="gradients"/><g class="patterns"/></defs><g class="bglayer"/><g class="layer-below"><g class="imagelayer"/><g class="shapelayer"/></g><g class="cartesianlayer"/><g class="polarlayer"/><g class="smithlayer"/><g class="ternarylayer"/><g class="geolayer"/><g class="funnelarealayer"/><g class="pielayer"/><g class="iciclelayer"/><g class="treemaplayer"/><g class="sunburstlayer"/><g class="glimages"/><defs id="topdefs-3980bf"><g class="clips"/></defs><g class="indicatorlayer"><g class="trace"><g class="numbers" transform="translate(350,332.5917284155864)scale(0.9527980394566969)"><text text-anchor="middle" class="number" x="0" y="0" style="font-family: 'Open Sans', verdana, arial, sans-serif; font-size: 80px; fill: rgb(42, 63, 95); fill-opacity: 1; white-space: pre;">−0.14</text><text text-anchor="middle" class="delta" x="0" y="0" style="font-family: 'Open Sans', verdana, arial, sans-serif; font-size: 40px; fill: rgb(61, 153, 112); fill-opacity: 1; white-space: pre;" dy="48.5">-</text></g><g class="angular" transform="translate(350,395)"><g class="bg-arc"><path d="M-270,-3.3065463576978534e-14A270,270 0 0,1 270,0L202.5,0A202.5,202.5 0 0,0 -202.5,-2.4799097682733902e-14Z" style="stroke: rgb(68, 68, 68); stroke-opacity: 1; fill: rgb(255, 255, 255); fill-opacity: 1; stroke-width: 0;"/></g><g class="value-arc"><path d="M-253.125,-3.0998872103417375e-14A253.125,253.125 0 0,1 -55.21750797849984,-247.02893036574545L-47.85517358136652,-214.09173965031272A219.375,219.375 0 0,0 -219.375,-2.686568915629506e-14Z" style="stroke: rgb(255, 255, 255); stroke-opacity: 1; fill: rgb(255, 114, 118); fill-opacity: 1; stroke-width: 3;"/></g><g class="gauge-outline"><path d="M-270,-3.3065463576978534e-14A270,270 0 0,1 270,0L202.5,0A202.5,202.5 0 0,0 -202.5,-2.4799097682733902e-14Z" style="stroke: rgb(68, 68, 68); stroke-opacity: 1; fill: rgb(0, 0, 0); fill-opacity: 0; stroke-width: 1;"/></g></g><g class="angularaxis crisp"><path class="xangularaxistick ticks crisp" d="M0.5,0h5" transform="translate(80,394.99999999999994)rotate(-180)" style="stroke: rgb(68, 68, 68); stroke-opacity: 1; stroke-width: 1px;"/><path class="xangularaxistick ticks crisp" d="M0.5,0h5" transform="translate(159.0811690796322,204.08116907963216)rotate(-135)" style="stroke: rgb(68, 68, 68); stroke-opacity: 1; stroke-width: 1px;"/><path class="xangularaxistick ticks crisp" d="M0.5,0h5" transform="translate(350,125)rotate(-90)" style="stroke: rgb(68, 68, 68); stroke-opacity: 1; stroke-width: 1px;"/><path class="xangularaxistick ticks crisp" d="M0.5,0h5" transform="translate(540.9188309203678,204.0811690796322)rotate(-45)" style="stroke: rgb(68, 68, 68); stroke-opacity: 1; stroke-width: 1px;"/><path class="xangularaxistick ticks crisp" d="M0.5,0h5" transform="translate(620,395)rotate(0)" style="stroke: rgb(68, 68, 68); stroke-opacity: 1; stroke-width: 1px;"/><g class="xangularaxistick"><text text-anchor="end" x="-7.9" y="4.199999999999998" transform="translate(80,394.99999999999994)" style="font-family: 'Open Sans', verdana, arial, sans-serif; font-size: 12px; fill: rgb(42, 63, 95); fill-opacity: 1; white-space: pre; opacity: 1;">−1</text></g><g class="xangularaxistick"><text text-anchor="end" x="-5.586143571373725" y="-4.313351365237942" transform="translate(159.0811690796322,204.08116907963216)" style="font-family: 'Open Sans', verdana, arial, sans-serif; font-size: 12px; fill: rgb(42, 63, 95); fill-opacity: 1; white-space: pre; opacity: 1;">−0.5</text></g><g class="xangularaxistick"><text text-anchor="middle" x="4.837354856632045e-16" y="-10.3" transform="translate(350,125)" style="font-family: 'Open Sans', verdana, arial, sans-serif; font-size: 12px; fill: rgb(42, 63, 95); fill-opacity: 1; white-space: pre; opacity: 1;">0</text></g><g class="xangularaxistick"><text text-anchor="start" x="5.586143571373726" y="-4.31335136523794" transform="translate(540.9188309203678,204.0811690796322)" style="font-family: 'Open Sans', verdana, arial, sans-serif; font-size: 12px; fill: rgb(42, 63, 95); fill-opacity: 1; white-space: pre; opacity: 1;">0.5</text></g><g class="xangularaxistick"><text text-anchor="start" x="7.9" y="4.199999999999999" transform="translate(620,395)" style="font-family: 'Open Sans', verdana, arial, sans-serif; font-size: 12px; fill: rgb(42, 63, 95); fill-opacity: 1; white-space: pre; opacity: 1;">1</text></g></g><text class="title" text-anchor="middle" x="0" y="0" style="font-family: 'Open Sans', verdana, arial, sans-serif; font-size: 20px; fill: rgb(42, 63, 95); fill-opacity: 1; white-space: pre;" transform="translate(350,93.546875)">BBC Average Sentiment</text></g></g><g class="layer-above"><g class="imagelayer"/><g class="shapelayer"/></g><g class="infolayer"><g class="g-gtitle"/></g></svg>